<?xml version="1.0" encoding="UTF-8"?>
<svg xmlns="http://www.w3.org/2000/svg" xmlns:xlink="http://www.w3.org/1999/xlink" width="30px" height="30px" viewBox="0 0 30 30" version="1.1">
<g id="surface1">
<path style=" stroke:none;fill-rule:nonzero;fill:rgb(81.176472%,90.588236%,99.607843%);fill-opacity:1;" d="M 29.003906 0.644531 C 29.625 1.199219 29.941406 1.941406 30.019531 2.769531 C 30.027344 2.964844 30.027344 3.164062 30.027344 3.363281 C 30.023438 3.433594 30.023438 3.503906 30.023438 3.578125 C 29.945312 7.824219 27.023438 12.507812 24.34375 15.65625 C 24.308594 15.699219 24.273438 15.738281 24.234375 15.78125 C 24.167969 15.863281 24.097656 15.945312 24.023438 16.027344 C 23.839844 16.234375 23.839844 16.234375 23.789062 16.5 C 23.808594 16.546875 23.828125 16.59375 23.847656 16.640625 C 23.867188 16.699219 23.890625 16.757812 23.910156 16.816406 C 23.9375 16.882812 23.960938 16.949219 23.988281 17.015625 C 24.5625 18.605469 24.464844 20.386719 24.199219 22.03125 C 24.191406 22.085938 24.183594 22.136719 24.175781 22.191406 C 24.125 22.488281 24.074219 22.679688 23.855469 22.898438 C 23.808594 22.949219 23.761719 22.996094 23.710938 23.046875 C 23.660156 23.097656 23.609375 23.148438 23.554688 23.203125 C 23.4375 23.328125 23.320312 23.457031 23.203125 23.585938 C 23.144531 23.648438 23.082031 23.714844 23.023438 23.78125 C 22.875 23.9375 22.730469 24.097656 22.585938 24.257812 C 22.328125 24.546875 22.0625 24.832031 21.800781 25.121094 C 21.65625 25.273438 21.515625 25.425781 21.375 25.582031 C 21.296875 25.667969 21.214844 25.753906 21.136719 25.839844 C 21.023438 25.960938 20.914062 26.085938 20.808594 26.214844 C 20.78125 26.246094 20.75 26.277344 20.722656 26.3125 C 20.644531 26.402344 20.566406 26.492188 20.492188 26.582031 C 20.296875 26.746094 20.171875 26.769531 19.921875 26.777344 C 19.8125 26.714844 19.8125 26.714844 19.746094 26.601562 C 19.691406 26.40625 19.6875 26.261719 19.714844 26.058594 C 19.765625 25.699219 19.761719 25.335938 19.761719 24.972656 C 19.761719 24.929688 19.761719 24.890625 19.761719 24.847656 C 19.761719 24.207031 19.722656 23.59375 19.570312 22.96875 C 19.5625 22.925781 19.550781 22.882812 19.539062 22.839844 C 19.371094 22.128906 19.105469 21.46875 18.808594 20.800781 C 18.496094 20.953125 18.183594 21.109375 17.878906 21.277344 C 16.648438 21.953125 15.238281 22.542969 13.828125 22.675781 C 13.808594 22.746094 13.785156 22.8125 13.765625 22.882812 C 13.640625 23.257812 13.484375 23.613281 13.328125 23.976562 C 13.273438 24.09375 13.222656 24.210938 13.171875 24.332031 C 13.140625 24.40625 13.105469 24.484375 13.074219 24.5625 C 13.042969 24.628906 13.015625 24.699219 12.984375 24.769531 C 12.738281 25.273438 12.738281 25.273438 12.472656 25.398438 C 12.097656 25.351562 11.910156 25.085938 11.664062 24.816406 C 11.613281 24.765625 11.5625 24.710938 11.507812 24.65625 C 11.382812 24.523438 11.257812 24.390625 11.132812 24.257812 C 11.128906 24.292969 11.125 24.324219 11.121094 24.359375 C 10.960938 25.863281 10.515625 27.003906 9.492188 28.125 C 9.453125 28.167969 9.417969 28.210938 9.378906 28.253906 C 8.589844 29.09375 7.269531 29.976562 6.097656 30.03125 C 5.890625 30.019531 5.804688 30.003906 5.621094 29.902344 C 5.382812 29.617188 5.375 29.34375 5.382812 28.984375 C 5.382812 28.941406 5.382812 28.898438 5.386719 28.855469 C 5.386719 28.746094 5.386719 28.640625 5.390625 28.535156 C 5.316406 28.585938 5.316406 28.585938 5.242188 28.636719 C 3.992188 29.472656 2.675781 29.882812 1.167969 29.898438 C 1.128906 29.898438 1.085938 29.898438 1.046875 29.898438 C 0.730469 29.898438 0.40625 29.878906 0.175781 29.648438 C -0.246094 28.394531 0.289062 26.710938 0.847656 25.578125 C 1.023438 25.234375 1.230469 24.917969 1.464844 24.609375 C 1.363281 24.613281 1.363281 24.613281 1.257812 24.617188 C 1.167969 24.617188 1.074219 24.617188 0.984375 24.621094 C 0.917969 24.621094 0.917969 24.621094 0.847656 24.625 C 0.574219 24.628906 0.398438 24.613281 0.175781 24.433594 C 0.015625 24.265625 -0.0273438 24.144531 -0.03125 23.914062 C 0.015625 22.539062 1.148438 21.1875 2.089844 20.300781 C 3.152344 19.371094 4.359375 18.996094 5.742188 18.867188 C 5.710938 18.835938 5.679688 18.808594 5.644531 18.777344 C 5.503906 18.640625 5.359375 18.5 5.21875 18.363281 C 5.167969 18.316406 5.117188 18.265625 5.066406 18.21875 C 5.019531 18.171875 4.972656 18.125 4.925781 18.078125 C 4.878906 18.035156 4.835938 17.992188 4.789062 17.949219 C 4.664062 17.78125 4.636719 17.671875 4.628906 17.460938 C 4.683594 17.3125 4.71875 17.242188 4.851562 17.160156 C 4.917969 17.132812 4.917969 17.132812 4.984375 17.101562 C 5.058594 17.070312 5.058594 17.070312 5.132812 17.039062 C 5.210938 17.007812 5.210938 17.007812 5.292969 16.972656 C 5.347656 16.949219 5.398438 16.925781 5.457031 16.902344 C 5.570312 16.855469 5.683594 16.804688 5.800781 16.757812 C 5.976562 16.683594 6.152344 16.609375 6.328125 16.535156 C 6.4375 16.488281 6.550781 16.441406 6.660156 16.394531 C 6.742188 16.359375 6.742188 16.359375 6.820312 16.328125 C 6.894531 16.296875 6.894531 16.296875 6.96875 16.265625 C 7.011719 16.246094 7.054688 16.230469 7.101562 16.210938 C 7.207031 16.171875 7.207031 16.171875 7.324219 16.171875 C 7.328125 16.132812 7.332031 16.09375 7.335938 16.054688 C 7.535156 14.441406 8.25 12.957031 9.019531 11.542969 C 9.082031 11.425781 9.140625 11.308594 9.199219 11.191406 C 8.617188 10.925781 8.039062 10.691406 7.417969 10.523438 C 7.367188 10.511719 7.316406 10.496094 7.265625 10.484375 C 6.582031 10.304688 5.914062 10.234375 5.210938 10.242188 C 5.089844 10.242188 4.96875 10.242188 4.847656 10.242188 C 4.441406 10.246094 4.046875 10.257812 3.648438 10.3125 C 3.492188 10.3125 3.410156 10.28125 3.28125 10.195312 C 3.199219 10.027344 3.203125 9.910156 3.222656 9.726562 C 3.320312 9.589844 3.320312 9.589844 3.457031 9.464844 C 3.53125 9.398438 3.53125 9.398438 3.605469 9.328125 C 3.761719 9.1875 3.917969 9.050781 4.078125 8.914062 C 4.273438 8.742188 4.460938 8.5625 4.652344 8.386719 C 4.945312 8.109375 5.238281 7.839844 5.539062 7.570312 C 5.703125 7.421875 5.867188 7.273438 6.027344 7.125 C 6.058594 7.101562 6.085938 7.074219 6.117188 7.046875 C 6.269531 6.902344 6.425781 6.761719 6.578125 6.621094 C 6.609375 6.59375 6.640625 6.5625 6.671875 6.535156 C 6.757812 6.453125 6.84375 6.375 6.933594 6.292969 C 6.984375 6.246094 7.035156 6.199219 7.089844 6.152344 C 7.136719 6.109375 7.183594 6.066406 7.230469 6.023438 C 8.324219 5.269531 10.777344 5.523438 12.011719 5.742188 C 12.484375 5.835938 12.945312 5.945312 13.371094 6.171875 C 13.507812 6.222656 13.574219 6.199219 13.710938 6.152344 C 13.808594 6.089844 13.808594 6.089844 13.898438 6.007812 C 13.933594 5.980469 13.972656 5.949219 14.007812 5.917969 C 14.066406 5.867188 14.066406 5.867188 14.125 5.820312 C 15.761719 4.460938 17.574219 3.308594 19.441406 2.296875 C 19.566406 2.226562 19.695312 2.15625 19.820312 2.085938 C 22.207031 0.777344 26.492188 -1.234375 29.003906 0.644531 Z M 29.003906 0.644531 "/>
<path style=" stroke:none;fill-rule:nonzero;fill:rgb(99.607843%,78.431374%,26.274511%);fill-opacity:1;" d="M 7.910156 16.113281 C 8.046875 16.210938 8.046875 16.210938 8.179688 16.34375 C 8.230469 16.394531 8.28125 16.445312 8.332031 16.496094 C 8.386719 16.550781 8.441406 16.605469 8.496094 16.664062 C 8.554688 16.722656 8.617188 16.78125 8.675781 16.839844 C 8.832031 16.996094 8.992188 17.15625 9.152344 17.316406 C 9.316406 17.480469 9.484375 17.648438 9.648438 17.8125 C 9.929688 18.09375 10.207031 18.371094 10.488281 18.652344 C 10.808594 18.976562 11.132812 19.296875 11.457031 19.621094 C 11.734375 19.894531 12.011719 20.171875 12.289062 20.453125 C 12.453125 20.617188 12.617188 20.78125 12.785156 20.949219 C 12.941406 21.101562 13.097656 21.257812 13.25 21.414062 C 13.308594 21.472656 13.363281 21.53125 13.421875 21.585938 C 13.5 21.664062 13.578125 21.742188 13.65625 21.820312 C 13.699219 21.863281 13.742188 21.910156 13.789062 21.953125 C 13.90625 22.117188 13.929688 22.238281 13.945312 22.441406 C 13.917969 22.566406 13.917969 22.566406 13.871094 22.679688 C 13.84375 22.746094 13.84375 22.746094 13.816406 22.816406 C 13.796875 22.863281 13.777344 22.910156 13.753906 22.957031 C 13.734375 23.007812 13.714844 23.058594 13.691406 23.109375 C 13.644531 23.21875 13.597656 23.328125 13.554688 23.4375 C 13.472656 23.625 13.390625 23.816406 13.3125 24.003906 C 13.257812 24.136719 13.199219 24.269531 13.144531 24.402344 C 13.117188 24.464844 13.089844 24.527344 13.0625 24.589844 C 12.808594 25.179688 12.808594 25.179688 12.539062 25.371094 C 12.402344 25.394531 12.402344 25.394531 12.246094 25.371094 C 12.109375 25.269531 12.109375 25.269531 11.972656 25.128906 C 11.925781 25.078125 11.875 25.027344 11.824219 24.976562 C 11.773438 24.921875 11.722656 24.871094 11.671875 24.8125 C 11.59375 24.734375 11.59375 24.734375 11.515625 24.652344 C 11.386719 24.523438 11.257812 24.390625 11.132812 24.257812 C 11.128906 24.292969 11.125 24.324219 11.121094 24.359375 C 10.960938 25.863281 10.515625 27.003906 9.492188 28.125 C 9.453125 28.167969 9.417969 28.210938 9.378906 28.253906 C 8.589844 29.09375 7.269531 29.976562 6.097656 30.03125 C 5.890625 30.019531 5.804688 30.003906 5.621094 29.902344 C 5.382812 29.617188 5.375 29.34375 5.382812 28.984375 C 5.382812 28.941406 5.382812 28.898438 5.386719 28.855469 C 5.386719 28.746094 5.386719 28.640625 5.390625 28.535156 C 5.316406 28.585938 5.316406 28.585938 5.242188 28.636719 C 3.992188 29.472656 2.675781 29.882812 1.167969 29.898438 C 1.109375 29.898438 1.109375 29.898438 1.046875 29.898438 C 0.730469 29.898438 0.40625 29.878906 0.175781 29.648438 C -0.246094 28.394531 0.289062 26.710938 0.847656 25.578125 C 1.023438 25.234375 1.230469 24.917969 1.464844 24.609375 C 1.394531 24.613281 1.328125 24.613281 1.257812 24.617188 C 1.167969 24.617188 1.074219 24.617188 0.984375 24.621094 C 0.941406 24.621094 0.894531 24.625 0.847656 24.625 C 0.574219 24.628906 0.398438 24.613281 0.175781 24.433594 C 0.015625 24.265625 -0.0273438 24.144531 -0.03125 23.914062 C 0.015625 22.539062 1.148438 21.1875 2.089844 20.300781 C 3.152344 19.371094 4.359375 18.996094 5.742188 18.867188 C 5.710938 18.835938 5.679688 18.808594 5.644531 18.777344 C 5.503906 18.640625 5.359375 18.5 5.21875 18.363281 C 5.167969 18.316406 5.117188 18.265625 5.066406 18.21875 C 4.996094 18.148438 4.996094 18.148438 4.925781 18.078125 C 4.878906 18.035156 4.835938 17.992188 4.789062 17.949219 C 4.664062 17.78125 4.636719 17.671875 4.628906 17.460938 C 4.683594 17.316406 4.71875 17.242188 4.851562 17.160156 C 4.894531 17.140625 4.9375 17.125 4.980469 17.105469 C 5.027344 17.085938 5.074219 17.0625 5.125 17.042969 C 5.203125 17.011719 5.203125 17.011719 5.285156 16.976562 C 5.335938 16.953125 5.390625 16.929688 5.445312 16.90625 C 5.617188 16.835938 5.789062 16.761719 5.960938 16.691406 C 6.078125 16.644531 6.191406 16.59375 6.308594 16.546875 C 6.605469 16.417969 6.90625 16.292969 7.207031 16.171875 C 7.269531 16.148438 7.332031 16.121094 7.394531 16.09375 C 7.59375 16.046875 7.710938 16.0625 7.910156 16.113281 Z M 7.910156 16.113281 "/>
<path style=" stroke:none;fill-rule:nonzero;fill:rgb(94.509804%,27.058825%,30.980393%);fill-opacity:1;" d="M 29.003906 0.644531 C 29.625 1.199219 29.941406 1.941406 30.019531 2.769531 C 30.027344 2.964844 30.027344 3.164062 30.027344 3.363281 C 30.023438 3.433594 30.023438 3.503906 30.023438 3.578125 C 29.988281 5.445312 29.304688 7.28125 28.535156 8.964844 C 26.320312 8.71875 24.300781 7.5625 22.875 5.863281 C 21.917969 4.664062 21.046875 3.035156 21.09375 1.464844 C 23.308594 0.492188 26.773438 -1.023438 29.003906 0.644531 Z M 29.003906 0.644531 "/>
<path style=" stroke:none;fill-rule:nonzero;fill:rgb(94.509804%,26.666668%,30.588236%);fill-opacity:1;" d="M 7.910156 16.113281 C 8.046875 16.210938 8.046875 16.210938 8.179688 16.34375 C 8.253906 16.417969 8.253906 16.417969 8.332031 16.496094 C 8.386719 16.550781 8.441406 16.605469 8.496094 16.664062 C 8.554688 16.722656 8.617188 16.78125 8.675781 16.839844 C 8.832031 16.996094 8.992188 17.15625 9.152344 17.316406 C 9.316406 17.480469 9.484375 17.648438 9.648438 17.8125 C 9.929688 18.09375 10.207031 18.371094 10.488281 18.652344 C 10.808594 18.976562 11.132812 19.296875 11.457031 19.621094 C 11.734375 19.894531 12.011719 20.171875 12.289062 20.453125 C 12.453125 20.617188 12.617188 20.78125 12.785156 20.949219 C 12.941406 21.101562 13.097656 21.257812 13.25 21.414062 C 13.308594 21.472656 13.363281 21.53125 13.421875 21.585938 C 13.5 21.664062 13.578125 21.742188 13.65625 21.820312 C 13.699219 21.863281 13.742188 21.910156 13.789062 21.953125 C 13.90625 22.117188 13.929688 22.238281 13.945312 22.441406 C 13.917969 22.566406 13.917969 22.566406 13.871094 22.679688 C 13.84375 22.746094 13.84375 22.746094 13.816406 22.816406 C 13.796875 22.863281 13.777344 22.910156 13.753906 22.957031 C 13.734375 23.007812 13.714844 23.058594 13.691406 23.109375 C 13.644531 23.21875 13.597656 23.328125 13.554688 23.4375 C 13.472656 23.625 13.390625 23.816406 13.3125 24.003906 C 13.257812 24.136719 13.199219 24.269531 13.144531 24.402344 C 13.117188 24.464844 13.089844 24.527344 13.0625 24.589844 C 12.808594 25.179688 12.808594 25.179688 12.539062 25.371094 C 12.402344 25.394531 12.402344 25.394531 12.246094 25.371094 C 12.113281 25.269531 12.113281 25.269531 11.976562 25.132812 C 11.925781 25.082031 11.875 25.03125 11.824219 24.976562 C 11.773438 24.921875 11.71875 24.871094 11.667969 24.8125 C 11.589844 24.738281 11.589844 24.738281 11.511719 24.65625 C 11.296875 24.4375 11.089844 24.21875 10.890625 23.984375 C 10.664062 23.730469 10.429688 23.488281 10.1875 23.25 C 10.144531 23.203125 10.097656 23.15625 10.050781 23.109375 C 9.902344 22.960938 9.753906 22.808594 9.601562 22.660156 C 9.496094 22.554688 9.394531 22.453125 9.289062 22.347656 C 9.070312 22.128906 8.851562 21.910156 8.632812 21.691406 C 8.378906 21.4375 8.125 21.1875 7.875 20.933594 C 7.632812 20.691406 7.386719 20.445312 7.144531 20.203125 C 7.039062 20.097656 6.9375 19.996094 6.832031 19.890625 C 6.691406 19.746094 6.546875 19.601562 6.398438 19.460938 C 6.359375 19.417969 6.316406 19.375 6.273438 19.332031 C 6.042969 19.101562 5.804688 18.878906 5.554688 18.667969 C 5.378906 18.511719 5.210938 18.351562 5.042969 18.191406 C 5.007812 18.15625 4.976562 18.125 4.941406 18.09375 C 4.78125 17.941406 4.695312 17.839844 4.628906 17.628906 C 4.628906 17.449219 4.648438 17.375 4.746094 17.226562 C 4.851562 17.160156 4.851562 17.160156 4.980469 17.105469 C 5.027344 17.085938 5.074219 17.0625 5.125 17.042969 C 5.175781 17.019531 5.230469 17 5.285156 16.976562 C 5.335938 16.953125 5.390625 16.929688 5.445312 16.90625 C 5.617188 16.835938 5.789062 16.761719 5.960938 16.691406 C 6.078125 16.644531 6.191406 16.59375 6.308594 16.546875 C 6.605469 16.417969 6.90625 16.292969 7.207031 16.171875 C 7.269531 16.148438 7.332031 16.121094 7.394531 16.09375 C 7.59375 16.046875 7.710938 16.0625 7.910156 16.113281 Z M 7.910156 16.113281 "/>
<path style=" stroke:none;fill-rule:nonzero;fill:rgb(27.843139%,27.843139%,27.843139%);fill-opacity:1;" d="M 21.457031 7.445312 C 22.167969 7.929688 22.730469 8.589844 22.945312 9.441406 C 23.074219 10.375 22.945312 11.261719 22.441406 12.070312 C 21.917969 12.757812 21.226562 13.292969 20.363281 13.457031 C 19.386719 13.554688 18.570312 13.417969 17.753906 12.832031 C 17.035156 12.238281 16.636719 11.53125 16.523438 10.605469 C 16.453125 9.6875 16.660156 8.859375 17.257812 8.140625 C 17.585938 7.800781 17.917969 7.53125 18.339844 7.324219 C 18.394531 7.296875 18.449219 7.265625 18.503906 7.238281 C 19.421875 6.816406 20.597656 6.941406 21.457031 7.445312 Z M 21.457031 7.445312 "/>
<path style=" stroke:none;fill-rule:nonzero;fill:rgb(94.509804%,26.274511%,30.19608%);fill-opacity:1;" d="M 23.671875 16.40625 C 24.5625 17.46875 24.453125 19.5 24.359375 20.777344 C 24.320312 21.199219 24.265625 21.617188 24.199219 22.03125 C 24.1875 22.109375 24.1875 22.109375 24.175781 22.191406 C 24.125 22.488281 24.074219 22.679688 23.855469 22.898438 C 23.808594 22.949219 23.761719 22.996094 23.710938 23.046875 C 23.660156 23.097656 23.609375 23.148438 23.554688 23.203125 C 23.4375 23.328125 23.320312 23.457031 23.203125 23.585938 C 23.144531 23.648438 23.082031 23.714844 23.023438 23.78125 C 22.875 23.9375 22.730469 24.097656 22.585938 24.257812 C 22.328125 24.546875 22.0625 24.832031 21.800781 25.121094 C 21.65625 25.273438 21.515625 25.425781 21.375 25.582031 C 21.296875 25.667969 21.214844 25.753906 21.136719 25.839844 C 21.023438 25.960938 20.914062 26.085938 20.808594 26.214844 C 20.78125 26.246094 20.75 26.277344 20.722656 26.3125 C 20.644531 26.402344 20.566406 26.492188 20.492188 26.582031 C 20.296875 26.746094 20.171875 26.769531 19.921875 26.777344 C 19.8125 26.714844 19.8125 26.714844 19.746094 26.601562 C 19.691406 26.40625 19.6875 26.261719 19.714844 26.058594 C 19.765625 25.699219 19.761719 25.335938 19.761719 24.972656 C 19.761719 24.929688 19.761719 24.890625 19.761719 24.847656 C 19.761719 24.207031 19.722656 23.59375 19.570312 22.96875 C 19.5625 22.925781 19.550781 22.882812 19.539062 22.839844 C 19.402344 22.253906 19.207031 21.710938 18.949219 21.164062 C 18.921875 21.097656 18.921875 21.097656 18.890625 21.03125 C 18.871094 20.992188 18.851562 20.953125 18.832031 20.914062 C 18.808594 20.800781 18.808594 20.800781 18.851562 20.675781 C 18.96875 20.503906 19.136719 20.414062 19.308594 20.304688 C 19.828125 19.972656 20.320312 19.605469 20.800781 19.21875 C 20.835938 19.191406 20.871094 19.164062 20.90625 19.136719 C 21.460938 18.6875 21.964844 18.183594 22.46875 17.675781 C 22.503906 17.644531 22.539062 17.609375 22.570312 17.578125 C 22.929688 17.214844 23.285156 16.851562 23.613281 16.464844 C 23.632812 16.445312 23.652344 16.425781 23.671875 16.40625 Z M 23.671875 16.40625 "/>
<path style=" stroke:none;fill-rule:nonzero;fill:rgb(94.509804%,26.666668%,30.588236%);fill-opacity:1;" d="M 13.59375 6.269531 C 13.402344 6.503906 13.207031 6.714844 12.980469 6.914062 C 12.65625 7.203125 12.347656 7.503906 12.039062 7.8125 C 11.949219 7.902344 11.859375 7.992188 11.769531 8.082031 C 11.394531 8.453125 11.046875 8.839844 10.722656 9.257812 C 10.6875 9.300781 10.65625 9.34375 10.621094 9.386719 C 10.527344 9.503906 10.4375 9.621094 10.34375 9.742188 C 10.3125 9.78125 10.28125 9.824219 10.25 9.867188 C 10.003906 10.191406 9.773438 10.523438 9.558594 10.867188 C 9.394531 11.125 9.394531 11.125 9.199219 11.191406 C 9.035156 11.125 8.875 11.058594 8.710938 10.984375 C 8.289062 10.796875 7.867188 10.644531 7.417969 10.523438 C 7.367188 10.511719 7.316406 10.496094 7.265625 10.484375 C 6.582031 10.304688 5.914062 10.234375 5.210938 10.242188 C 5.089844 10.242188 4.96875 10.242188 4.847656 10.242188 C 4.441406 10.246094 4.046875 10.257812 3.648438 10.3125 C 3.492188 10.3125 3.410156 10.28125 3.28125 10.195312 C 3.199219 10.027344 3.203125 9.910156 3.222656 9.726562 C 3.320312 9.589844 3.320312 9.589844 3.457031 9.464844 C 3.53125 9.398438 3.53125 9.398438 3.605469 9.328125 C 3.761719 9.1875 3.917969 9.050781 4.078125 8.914062 C 4.273438 8.742188 4.460938 8.5625 4.652344 8.386719 C 4.945312 8.109375 5.238281 7.839844 5.539062 7.570312 C 5.703125 7.421875 5.867188 7.273438 6.027344 7.125 C 6.058594 7.101562 6.085938 7.074219 6.117188 7.046875 C 6.269531 6.902344 6.425781 6.761719 6.578125 6.621094 C 6.625 6.578125 6.625 6.578125 6.671875 6.535156 C 6.757812 6.453125 6.84375 6.375 6.933594 6.292969 C 6.984375 6.246094 7.035156 6.199219 7.089844 6.152344 C 7.160156 6.089844 7.160156 6.089844 7.230469 6.023438 C 8.679688 5.023438 12.121094 5.507812 13.59375 6.269531 Z M 13.59375 6.269531 "/>
<path style=" stroke:none;fill-rule:nonzero;fill:rgb(81.568629%,90.196079%,99.215686%);fill-opacity:1;" d="M 8.144531 13.359375 C 8.511719 13.664062 8.847656 13.996094 9.1875 14.335938 C 9.25 14.398438 9.3125 14.460938 9.375 14.523438 C 9.546875 14.691406 9.714844 14.863281 9.882812 15.03125 C 10.0625 15.210938 10.242188 15.390625 10.417969 15.566406 C 10.71875 15.867188 11.019531 16.164062 11.316406 16.464844 C 11.660156 16.8125 12.007812 17.15625 12.351562 17.5 C 12.648438 17.796875 12.945312 18.09375 13.242188 18.390625 C 13.421875 18.570312 13.597656 18.746094 13.777344 18.921875 C 13.941406 19.089844 14.109375 19.257812 14.273438 19.425781 C 14.335938 19.484375 14.398438 19.546875 14.457031 19.605469 C 14.757812 19.90625 15.050781 20.207031 15.328125 20.53125 C 15.445312 20.667969 15.574219 20.796875 15.707031 20.921875 C 15.757812 20.972656 15.808594 21.023438 15.863281 21.078125 C 15.96875 21.183594 16.078125 21.289062 16.183594 21.394531 C 16.238281 21.441406 16.289062 21.492188 16.339844 21.546875 C 16.386719 21.589844 16.433594 21.636719 16.480469 21.683594 C 16.582031 21.796875 16.582031 21.796875 16.582031 21.914062 C 14.6875 22.578125 14.6875 22.578125 13.828125 22.675781 C 13.855469 22.574219 13.855469 22.574219 13.882812 22.46875 C 13.902344 22.3125 13.90625 22.234375 13.816406 22.097656 C 13.785156 22.0625 13.75 22.027344 13.714844 21.992188 C 13.660156 21.929688 13.660156 21.929688 13.601562 21.867188 C 13.5625 21.824219 13.519531 21.78125 13.476562 21.738281 C 13.433594 21.695312 13.394531 21.652344 13.351562 21.605469 C 13.210938 21.460938 13.066406 21.320312 12.925781 21.175781 C 12.871094 21.121094 12.816406 21.066406 12.761719 21.011719 C 12.585938 20.832031 12.40625 20.65625 12.230469 20.476562 C 12.171875 20.414062 12.109375 20.355469 12.046875 20.292969 C 11.792969 20.035156 11.539062 19.78125 11.285156 19.527344 C 10.917969 19.160156 10.554688 18.796875 10.195312 18.429688 C 9.9375 18.171875 9.679688 17.914062 9.425781 17.65625 C 9.269531 17.503906 9.117188 17.347656 8.964844 17.195312 C 8.796875 17.023438 8.625 16.851562 8.453125 16.683594 C 8.40625 16.632812 8.355469 16.578125 8.300781 16.527344 C 8.257812 16.480469 8.210938 16.433594 8.160156 16.386719 C 8.101562 16.328125 8.101562 16.328125 8.039062 16.265625 C 7.878906 16.148438 7.753906 16.128906 7.558594 16.113281 C 7.425781 16.132812 7.425781 16.132812 7.324219 16.171875 C 7.371094 15.664062 7.496094 15.1875 7.636719 14.699219 C 7.652344 14.640625 7.667969 14.582031 7.6875 14.523438 C 7.804688 14.117188 7.960938 13.738281 8.144531 13.359375 Z M 8.144531 13.359375 "/>
<path style=" stroke:none;fill-rule:nonzero;fill:rgb(94.117647%,28.627452%,32.941177%);fill-opacity:1;" d="M 8.144531 13.359375 C 8.511719 13.664062 8.847656 13.996094 9.1875 14.335938 C 9.25 14.398438 9.3125 14.460938 9.375 14.523438 C 9.546875 14.691406 9.714844 14.863281 9.882812 15.03125 C 10.0625 15.210938 10.242188 15.390625 10.417969 15.566406 C 10.71875 15.867188 11.019531 16.164062 11.316406 16.464844 C 11.660156 16.8125 12.007812 17.15625 12.351562 17.5 C 12.648438 17.796875 12.945312 18.09375 13.242188 18.390625 C 13.421875 18.570312 13.597656 18.746094 13.777344 18.921875 C 13.941406 19.089844 14.109375 19.257812 14.273438 19.425781 C 14.335938 19.484375 14.398438 19.546875 14.457031 19.605469 C 14.757812 19.90625 15.050781 20.207031 15.328125 20.53125 C 15.445312 20.667969 15.574219 20.796875 15.707031 20.921875 C 15.757812 20.972656 15.808594 21.023438 15.863281 21.078125 C 15.96875 21.183594 16.078125 21.289062 16.183594 21.394531 C 16.238281 21.441406 16.289062 21.492188 16.339844 21.546875 C 16.386719 21.589844 16.433594 21.636719 16.480469 21.683594 C 16.582031 21.796875 16.582031 21.796875 16.582031 21.914062 C 16.351562 21.992188 16.117188 22.070312 15.878906 22.148438 C 15.257812 21.53125 14.640625 20.910156 14.019531 20.292969 C 13.734375 20.007812 13.445312 19.71875 13.15625 19.433594 C 12.878906 19.15625 12.601562 18.878906 12.324219 18.601562 C 12.21875 18.496094 12.113281 18.386719 12.007812 18.28125 C 11.859375 18.136719 11.710938 17.988281 11.5625 17.839844 C 11.519531 17.792969 11.476562 17.75 11.429688 17.707031 C 11.195312 17.472656 10.972656 17.230469 10.757812 16.980469 C 10.632812 16.839844 10.503906 16.707031 10.371094 16.574219 C 10.320312 16.523438 10.265625 16.46875 10.210938 16.414062 C 10.152344 16.355469 10.09375 16.296875 10.039062 16.242188 C 9.980469 16.183594 9.917969 16.121094 9.859375 16.0625 C 9.734375 15.9375 9.613281 15.816406 9.488281 15.691406 C 9.328125 15.53125 9.171875 15.375 9.011719 15.214844 C 8.890625 15.089844 8.765625 14.96875 8.644531 14.847656 C 8.585938 14.789062 8.527344 14.730469 8.46875 14.671875 C 8.386719 14.589844 8.304688 14.507812 8.222656 14.425781 C 8.175781 14.378906 8.128906 14.332031 8.082031 14.285156 C 7.976562 14.175781 7.976562 14.175781 7.851562 14.121094 C 7.878906 14.039062 7.90625 13.953125 7.933594 13.871094 C 7.953125 13.800781 7.953125 13.800781 7.976562 13.730469 C 8.023438 13.601562 8.082031 13.484375 8.144531 13.359375 Z M 8.144531 13.359375 "/>
<path style=" stroke:none;fill-rule:nonzero;fill:rgb(20%,20.392157%,20.392157%);fill-opacity:1;" d="M 20.859375 7.207031 C 20.785156 7.371094 20.707031 7.488281 20.582031 7.617188 C 20.550781 7.648438 20.515625 7.683594 20.484375 7.714844 C 20.449219 7.75 20.414062 7.785156 20.375 7.824219 C 20.339844 7.859375 20.300781 7.898438 20.261719 7.9375 C 20.140625 8.0625 20.015625 8.1875 19.890625 8.308594 C 19.804688 8.398438 19.71875 8.484375 19.632812 8.570312 C 19.453125 8.75 19.273438 8.929688 19.089844 9.109375 C 18.859375 9.34375 18.628906 9.574219 18.394531 9.808594 C 18.21875 9.988281 18.039062 10.164062 17.863281 10.34375 C 17.777344 10.429688 17.691406 10.515625 17.605469 10.597656 C 17.488281 10.71875 17.367188 10.839844 17.25 10.957031 C 17.195312 11.011719 17.195312 11.011719 17.140625 11.066406 C 16.894531 11.308594 16.894531 11.308594 16.699219 11.308594 C 16.417969 10.398438 16.453125 9.554688 16.875 8.699219 C 17.21875 8.09375 17.714844 7.628906 18.339844 7.324219 C 18.394531 7.296875 18.449219 7.265625 18.503906 7.238281 C 19.175781 6.929688 20.179688 6.867188 20.859375 7.207031 Z M 20.859375 7.207031 "/>
<path style=" stroke:none;fill-rule:nonzero;fill:rgb(20%,20.392157%,20.392157%);fill-opacity:1;" d="M 22.675781 9.140625 C 22.734375 9.160156 22.792969 9.179688 22.851562 9.199219 C 22.96875 9.503906 22.988281 9.792969 22.988281 10.117188 C 22.988281 10.164062 22.988281 10.210938 22.984375 10.257812 C 22.964844 11.210938 22.597656 12 21.914062 12.65625 C 21.214844 13.316406 20.382812 13.5 19.449219 13.492188 C 19.164062 13.472656 18.953125 13.414062 18.691406 13.300781 C 18.691406 13.070312 18.789062 13.007812 18.945312 12.851562 C 18.980469 12.8125 19.019531 12.777344 19.058594 12.738281 C 19.097656 12.699219 19.136719 12.660156 19.175781 12.621094 C 19.304688 12.492188 19.433594 12.363281 19.5625 12.234375 C 19.652344 12.148438 19.742188 12.058594 19.832031 11.96875 C 20.066406 11.734375 20.300781 11.5 20.539062 11.265625 C 20.777344 11.027344 21.019531 10.789062 21.257812 10.546875 C 21.730469 10.078125 22.203125 9.609375 22.675781 9.140625 Z M 22.675781 9.140625 "/>
<path style=" stroke:none;fill-rule:nonzero;fill:rgb(27.450982%,27.450982%,27.450982%);fill-opacity:1;" d="M 20.859375 7.207031 C 21.289062 7.316406 21.625 7.589844 21.972656 7.851562 C 21.894531 8.023438 21.8125 8.144531 21.679688 8.277344 C 21.640625 8.316406 21.605469 8.351562 21.566406 8.390625 C 21.527344 8.429688 21.488281 8.46875 21.449219 8.511719 C 21.40625 8.554688 21.363281 8.597656 21.320312 8.640625 C 21.183594 8.78125 21.042969 8.917969 20.902344 9.058594 C 20.808594 9.15625 20.710938 9.253906 20.613281 9.351562 C 20.410156 9.554688 20.210938 9.757812 20.007812 9.960938 C 19.746094 10.21875 19.488281 10.480469 19.230469 10.742188 C 19.03125 10.945312 18.832031 11.144531 18.628906 11.34375 C 18.535156 11.4375 18.4375 11.535156 18.34375 11.632812 C 18.210938 11.765625 18.078125 11.902344 17.941406 12.035156 C 17.902344 12.074219 17.863281 12.113281 17.824219 12.15625 C 17.785156 12.191406 17.75 12.230469 17.710938 12.265625 C 17.679688 12.296875 17.648438 12.328125 17.617188 12.363281 C 17.519531 12.421875 17.519531 12.421875 17.394531 12.40625 C 17.046875 12.265625 16.84375 11.75 16.699219 11.425781 C 16.699219 11.386719 16.699219 11.347656 16.699219 11.308594 C 16.738281 11.285156 16.78125 11.261719 16.820312 11.238281 C 17.039062 11.105469 17.199219 10.945312 17.375 10.765625 C 17.410156 10.726562 17.449219 10.691406 17.488281 10.652344 C 17.609375 10.53125 17.730469 10.410156 17.851562 10.285156 C 17.9375 10.203125 18.023438 10.117188 18.105469 10.03125 C 18.285156 9.855469 18.460938 9.675781 18.636719 9.5 C 18.867188 9.269531 19.09375 9.042969 19.320312 8.816406 C 19.496094 8.640625 19.671875 8.464844 19.847656 8.289062 C 19.929688 8.203125 20.015625 8.121094 20.097656 8.035156 C 20.214844 7.917969 20.332031 7.800781 20.449219 7.683594 C 20.484375 7.648438 20.519531 7.613281 20.554688 7.578125 C 20.726562 7.410156 20.726562 7.410156 20.859375 7.207031 Z M 20.859375 7.207031 "/>
<path style=" stroke:none;fill-rule:nonzero;fill:rgb(73.725492%,81.176472%,89.019608%);fill-opacity:1;" d="M 21.09375 1.523438 C 21.105469 1.582031 21.113281 1.644531 21.125 1.707031 C 21.457031 3.546875 22.195312 5.097656 23.496094 6.445312 C 23.558594 6.515625 23.558594 6.515625 23.625 6.582031 C 24.667969 7.6875 26.085938 8.355469 27.539062 8.730469 C 27.582031 8.742188 27.628906 8.753906 27.671875 8.765625 C 27.941406 8.832031 28.207031 8.898438 28.476562 8.964844 C 28.375 9.300781 28.375 9.300781 28.242188 9.433594 C 26.296875 9.359375 24.171875 7.953125 22.882812 6.589844 C 21.828125 5.4375 21.15625 4.066406 20.746094 2.566406 C 20.734375 2.519531 20.71875 2.472656 20.707031 2.425781 C 20.644531 2.1875 20.59375 1.996094 20.683594 1.757812 C 20.929688 1.523438 20.929688 1.523438 21.09375 1.523438 Z M 21.09375 1.523438 "/>
<path style=" stroke:none;fill-rule:nonzero;fill:rgb(71.372551%,80.000001%,87.843138%);fill-opacity:1;" d="M 19.769531 6.78125 C 20.621094 6.734375 21.476562 7.128906 22.101562 7.679688 C 22.828125 8.359375 23.167969 9.222656 23.203125 10.210938 C 23.199219 11.164062 22.886719 11.96875 22.214844 12.652344 C 22.175781 12.695312 22.132812 12.734375 22.089844 12.773438 C 22.058594 12.808594 22.023438 12.839844 21.988281 12.875 C 21.355469 13.472656 20.542969 13.664062 19.703125 13.667969 C 19.648438 13.667969 19.59375 13.667969 19.535156 13.671875 C 18.65625 13.675781 17.9375 13.28125 17.304688 12.683594 C 16.535156 11.871094 16.320312 11.042969 16.335938 9.960938 C 16.363281 9.109375 16.726562 8.363281 17.3125 7.75 C 18.058594 7.074219 18.792969 6.886719 19.769531 6.78125 Z M 18.339844 7.324219 C 18.265625 7.363281 18.265625 7.363281 18.1875 7.398438 C 17.355469 7.84375 16.902344 8.546875 16.585938 9.40625 C 16.550781 9.535156 16.535156 9.652344 16.523438 9.785156 C 16.519531 9.84375 16.515625 9.90625 16.507812 9.964844 C 16.476562 10.828125 16.691406 11.679688 17.246094 12.355469 C 17.832031 12.984375 18.574219 13.4375 19.449219 13.492188 C 20.382812 13.515625 21.203125 13.292969 21.914062 12.65625 C 21.949219 12.625 21.988281 12.59375 22.023438 12.558594 C 22.617188 12.011719 22.945312 11.222656 22.984375 10.421875 C 23.003906 9.5 22.785156 8.671875 22.128906 7.980469 C 21.277344 7.199219 20.375 6.96875 19.246094 7.019531 C 18.914062 7.046875 18.632812 7.171875 18.339844 7.324219 Z M 18.339844 7.324219 "/>
<path style=" stroke:none;fill-rule:nonzero;fill:rgb(85.490197%,25.098041%,28.627452%);fill-opacity:1;" d="M 23.671875 16.40625 C 23.902344 16.683594 23.902344 16.683594 23.90625 16.875 C 23.804688 17.007812 23.707031 17.117188 23.589844 17.234375 C 23.527344 17.300781 23.460938 17.371094 23.394531 17.4375 C 23.347656 17.488281 23.347656 17.488281 23.296875 17.539062 C 23.167969 17.671875 23.050781 17.808594 22.929688 17.945312 C 22.539062 18.378906 22.125 18.78125 21.679688 19.160156 C 21.628906 19.207031 21.574219 19.253906 21.519531 19.300781 C 20.75 19.96875 19.925781 20.582031 19.042969 21.09375 C 18.894531 20.964844 18.839844 20.875 18.808594 20.683594 C 19.378906 20.265625 19.378906 20.265625 19.65625 20.070312 C 20.070312 19.777344 20.472656 19.480469 20.859375 19.160156 C 20.941406 19.09375 20.941406 19.09375 21.023438 19.027344 C 21.535156 18.609375 22 18.148438 22.46875 17.679688 C 22.5 17.648438 22.535156 17.613281 22.566406 17.578125 C 22.929688 17.21875 23.28125 16.855469 23.613281 16.464844 C 23.632812 16.445312 23.652344 16.425781 23.671875 16.40625 Z M 23.671875 16.40625 "/>
<path style=" stroke:none;fill-rule:nonzero;fill:rgb(85.490197%,25.098041%,28.627452%);fill-opacity:1;" d="M 13.3125 6.128906 C 13.476562 6.210938 13.476562 6.210938 13.59375 6.328125 C 13.535156 6.386719 13.476562 6.449219 13.417969 6.507812 C 13.386719 6.539062 13.351562 6.574219 13.320312 6.609375 C 13.207031 6.714844 13.097656 6.8125 12.980469 6.914062 C 12.667969 7.183594 12.375 7.476562 12.082031 7.769531 C 11.988281 7.867188 11.890625 7.960938 11.792969 8.054688 C 11.410156 8.4375 11.054688 8.832031 10.722656 9.257812 C 10.6875 9.300781 10.65625 9.34375 10.621094 9.386719 C 10.527344 9.503906 10.4375 9.621094 10.34375 9.742188 C 10.3125 9.78125 10.28125 9.824219 10.25 9.867188 C 10.003906 10.191406 9.773438 10.523438 9.558594 10.867188 C 9.394531 11.125 9.394531 11.125 9.199219 11.191406 C 9.042969 11.105469 9.042969 11.105469 8.90625 11.015625 C 8.980469 10.816406 9.066406 10.644531 9.1875 10.46875 C 9.21875 10.421875 9.253906 10.375 9.285156 10.328125 C 9.320312 10.277344 9.355469 10.226562 9.394531 10.175781 C 9.429688 10.125 9.464844 10.074219 9.503906 10.019531 C 10.003906 9.316406 10.550781 8.660156 11.132812 8.027344 C 11.21875 7.933594 11.300781 7.835938 11.386719 7.742188 C 11.808594 7.273438 12.25 6.816406 12.734375 6.410156 C 12.820312 6.335938 12.902344 6.257812 12.984375 6.179688 C 13.125 6.09375 13.125 6.09375 13.3125 6.128906 Z M 13.3125 6.128906 "/>
<path style=" stroke:none;fill-rule:nonzero;fill:rgb(20%,20%,20%);fill-opacity:1;" d="M 21.796875 7.738281 C 21.835938 7.757812 21.875 7.773438 21.914062 7.792969 C 21.914062 8.046875 21.914062 8.058594 21.75 8.222656 C 21.710938 8.261719 21.675781 8.296875 21.636719 8.335938 C 21.578125 8.398438 21.578125 8.398438 21.515625 8.457031 C 21.472656 8.5 21.429688 8.542969 21.386719 8.589844 C 21.246094 8.730469 21.101562 8.871094 20.960938 9.011719 C 20.863281 9.113281 20.765625 9.210938 20.667969 9.308594 C 20.460938 9.515625 20.253906 9.71875 20.050781 9.925781 C 19.785156 10.191406 19.519531 10.453125 19.257812 10.71875 C 19.054688 10.921875 18.851562 11.125 18.648438 11.328125 C 18.550781 11.425781 18.457031 11.523438 18.359375 11.621094 C 18.222656 11.757812 18.085938 11.894531 17.949219 12.027344 C 17.910156 12.070312 17.867188 12.109375 17.828125 12.152344 C 17.789062 12.1875 17.753906 12.226562 17.714844 12.261719 C 17.683594 12.296875 17.648438 12.328125 17.617188 12.359375 C 17.519531 12.421875 17.519531 12.421875 17.390625 12.402344 C 17.355469 12.390625 17.320312 12.375 17.285156 12.363281 C 17.246094 12.257812 17.246094 12.257812 17.226562 12.128906 C 17.289062 12.03125 17.289062 12.03125 17.382812 11.933594 C 17.421875 11.894531 17.457031 11.859375 17.496094 11.820312 C 17.535156 11.78125 17.578125 11.738281 17.617188 11.699219 C 17.683594 11.632812 17.683594 11.632812 17.746094 11.566406 C 17.886719 11.425781 18.03125 11.285156 18.171875 11.144531 C 18.269531 11.042969 18.367188 10.945312 18.464844 10.847656 C 18.671875 10.640625 18.878906 10.4375 19.082031 10.230469 C 19.347656 9.96875 19.613281 9.703125 19.875 9.4375 C 20.078125 9.234375 20.28125 9.03125 20.484375 8.828125 C 20.582031 8.730469 20.675781 8.632812 20.773438 8.535156 C 20.910156 8.398438 21.046875 8.261719 21.183594 8.128906 C 21.222656 8.085938 21.265625 8.046875 21.304688 8.003906 C 21.582031 7.734375 21.582031 7.734375 21.796875 7.738281 Z M 21.796875 7.738281 "/>
</g>
</svg>
